<svg width="52" height="52" viewBox="0 0 52 52" fill="none" xmlns="http://www.w3.org/2000/svg">
<path d="M51.5002 20.0004V44.0004C51.5002 46.1221 50.6573 48.157 49.157 49.6573C47.6567 51.1576 45.6219 52.0004 43.5002 52.0004H8.8335C6.71176 52.0004 4.67693 51.1576 3.17664 49.6573C1.67635 48.157 0.833496 46.1221 0.833496 44.0004V20.0004C0.833496 17.0404 2.4335 14.4537 4.8335 13.0671L26.1668 0.74707L47.5002 13.0671C49.9002 14.4537 51.5002 17.0404 51.5002 20.0004ZM5.42016 15.9204L26.1668 29.3337L46.9135 15.9204L26.1668 3.81374L5.42016 15.9204ZM26.1668 32.5604L3.84683 18.0804C3.6335 18.6671 3.50016 19.3337 3.50016 20.0004V44.0004C3.50016 45.4149 4.06207 46.7715 5.06226 47.7716C6.06245 48.7718 7.41901 49.3337 8.8335 49.3337H43.5002C44.9147 49.3337 46.2712 48.7718 47.2714 47.7716C48.2716 46.7715 48.8335 45.4149 48.8335 44.0004V20.0004C48.8335 19.3337 48.7002 18.6671 48.4868 18.0804L26.1668 32.5604Z" fill="#FE7A29"/>
</svg>
