<svg width="17" height="17" viewBox="0 0 17 17" fill="none" xmlns="http://www.w3.org/2000/svg">
<path d="M15.926 16.8263L9.77184 10.6722C9.28045 11.0909 8.71536 11.4149 8.07656 11.6442C7.43775 11.8735 6.79568 11.9882 6.15032 11.9882C4.57658 11.9882 3.2446 11.4434 2.15437 10.3538C1.06415 9.26425 0.519043 7.93259 0.519043 6.35885C0.519043 4.7851 1.0635 3.45279 2.15241 2.36192C3.24132 1.27104 4.57265 0.724946 6.14639 0.723635C7.72014 0.722325 9.05278 1.26744 10.1443 2.35897C11.2358 3.4505 11.7816 4.78281 11.7816 6.3559C11.7816 7.0386 11.6607 7.69935 11.419 8.33815C11.1772 8.97695 10.8594 9.52337 10.4657 9.97741L16.6198 16.1305L15.926 16.8263ZM6.15131 11.0044C7.45512 11.0044 8.55582 10.5556 9.45342 9.65801C10.351 8.76041 10.7998 7.65938 10.7998 6.35492C10.7998 5.05045 10.351 3.94975 9.45342 3.0528C8.55582 2.15586 7.45512 1.70706 6.15131 1.70641C4.8475 1.70575 3.74646 2.15455 2.84821 3.0528C1.94996 3.95106 1.50116 5.05176 1.50181 6.35492C1.50247 7.65807 1.95127 8.75878 2.84821 9.65703C3.74515 10.5553 4.84586 11.0041 6.15032 11.0034" fill="#FE7A29"/>
</svg>
