<svg width="20" height="20" viewBox="0 0 20 20" fill="none" xmlns="http://www.w3.org/2000/svg">
<path d="M10.2061 0.717529C11.4715 0.717529 12.685 1.22019 13.5797 2.11492C14.4744 3.00965 14.9771 4.22318 14.9771 5.48852C14.9771 6.75387 14.4744 7.96739 13.5797 8.86212C12.685 9.75686 11.4715 10.2595 10.2061 10.2595C8.94076 10.2595 7.72724 9.75686 6.83251 8.86212C5.93777 7.96739 5.43512 6.75387 5.43512 5.48852C5.43512 4.22318 5.93777 3.00965 6.83251 2.11492C7.72724 1.22019 8.94076 0.717529 10.2061 0.717529ZM10.2061 3.10303C9.57343 3.10303 8.96668 3.35435 8.51931 3.80172C8.07194 4.24909 7.82061 4.85585 7.82061 5.48852C7.82061 6.12119 8.07194 6.72795 8.51931 7.17532C8.96668 7.62269 9.57343 7.87402 10.2061 7.87402C10.8388 7.87402 11.4455 7.62269 11.8929 7.17532C12.3403 6.72795 12.5916 6.12119 12.5916 5.48852C12.5916 4.85585 12.3403 4.24909 11.8929 3.80172C11.4455 3.35435 10.8388 3.10303 10.2061 3.10303ZM10.2061 11.4523C13.3907 11.4523 19.7481 13.0386 19.7481 16.2233V19.8015H0.664124V16.2233C0.664124 13.0386 7.02147 11.4523 10.2061 11.4523ZM10.2061 13.7185C6.66365 13.7185 2.93035 15.4599 2.93035 16.2233V17.5353H17.4819V16.2233C17.4819 15.4599 13.7486 13.7185 10.2061 13.7185Z" fill="#F6F6F6"/>
</svg>
