<svg width="25" height="23" viewBox="0 0 25 23" fill="none" xmlns="http://www.w3.org/2000/svg">
<path d="M0.740479 0.127197H5.62529L8.70136 11.2595H19.483L22.6503 1.88307L24.5954 2.52368L20.9605 13.2836H8.71777L8.20509 15.3076H23.2984V17.3317H5.58017L6.85777 12.2827L4.05854 2.15125H0.740479V0.127197ZM15.0955 1.13923V4.17531H18.1716V6.19937H15.0955V9.23546H13.0448V6.19937H9.96871V4.17531H13.0448V1.13923H15.0955ZM4.84191 20.3678C4.84191 19.831 5.05797 19.3161 5.44255 18.9365C5.82714 18.557 6.34875 18.3437 6.89263 18.3437C7.43651 18.3437 7.95812 18.557 8.34271 18.9365C8.72729 19.3161 8.94335 19.831 8.94335 20.3678C8.94335 20.9046 8.72729 21.4194 8.34271 21.799C7.95812 22.1786 7.43651 22.3918 6.89263 22.3918C6.34875 22.3918 5.82714 22.1786 5.44255 21.799C5.05797 21.4194 4.84191 20.9046 4.84191 20.3678ZM19.1969 20.3678C19.1969 19.831 19.413 19.3161 19.7976 18.9365C20.1822 18.557 20.7038 18.3437 21.2476 18.3437C21.7915 18.3437 22.3131 18.557 22.6977 18.9365C23.0823 19.3161 23.2984 19.831 23.2984 20.3678C23.2984 20.9046 23.0823 21.4194 22.6977 21.799C22.3131 22.1786 21.7915 22.3918 21.2476 22.3918C20.7038 22.3918 20.1822 22.1786 19.7976 21.799C19.413 21.4194 19.1969 20.9046 19.1969 20.3678Z" fill="#F6F6F6"/>
</svg>
