<svg xmlns="http://www.w3.org/2000/svg" style="display: none;">
<symbol id="icon-burger-menu" viewBox="0 0 28 14">
<path d="M0.450378 13.9389V12.6714H27.1679V13.9389H0.450378ZM0.450378 7.89319V6.62575H27.1679V7.89319H0.450378ZM0.450378 1.84751V0.580078H27.1679V1.84751H0.450378Z" fill="white"/>
</symbol>
<symbol id="icon-cart-filled" viewBox="0 0 20 18">
<path d="M17.5659 10.893H7.6976L7.91793 11.9702H16.9538C17.4723 11.9702 17.8566 12.4516 17.7417 12.9572L17.556 13.7744C18.1852 14.0798 18.619 14.7248 18.619 15.4712C18.619 16.5216 17.76 17.3713 16.7061 17.3562C15.7022 17.3417 14.8765 16.527 14.8494 15.5233C14.8346 14.975 15.0542 14.4781 15.4151 14.1246H8.35754C8.70687 14.4669 8.9239 14.9436 8.9239 15.4712C8.9239 16.5422 8.03087 17.4046 6.94885 17.3543C5.98809 17.3097 5.20672 16.5334 5.15623 15.5729C5.11725 14.8312 5.50754 14.1774 6.10053 13.8363L3.73576 2.27508H1.38324C0.937033 2.27508 0.575317 1.91336 0.575317 1.46715V0.928533C0.575317 0.482321 0.937033 0.120605 1.38324 0.120605H4.83474C5.21854 0.120605 5.54935 0.390621 5.62627 0.766611L5.93484 2.27508H19.1573C19.6758 2.27508 20.06 2.7565 19.9451 3.26206L18.3537 10.2641C18.2702 10.6319 17.9432 10.893 17.5659 10.893ZM14.3101 5.7761H12.6942V4.42955C12.6942 4.13206 12.4531 3.89093 12.1556 3.89093H11.617C11.3195 3.89093 11.0784 4.13206 11.0784 4.42955V5.7761H9.46251C9.16503 5.7761 8.9239 6.01723 8.9239 6.31471V6.85333C8.9239 7.15082 9.16503 7.39195 9.46251 7.39195H11.0784V8.73849C11.0784 9.03598 11.3195 9.27711 11.617 9.27711H12.1556C12.4531 9.27711 12.6942 9.03598 12.6942 8.73849V7.39195H14.3101C14.6076 7.39195 14.8487 7.15082 14.8487 6.85333V6.31471C14.8487 6.01723 14.6076 5.7761 14.3101 5.7761Z" fill="#FE7A29"/>
</symbol>
<symbol id="icon-cart-outlined" viewBox="0 0 25 23">
<path d="M0.740479 0.127197H5.62529L8.70136 11.2595H19.483L22.6503 1.88307L24.5954 2.52368L20.9605 13.2836H8.71777L8.20509 15.3076H23.2984V17.3317H5.58017L6.85777 12.2827L4.05854 2.15125H0.740479V0.127197ZM15.0955 1.13923V4.17531H18.1716V6.19937H15.0955V9.23546H13.0448V6.19937H9.96871V4.17531H13.0448V1.13923H15.0955ZM4.84191 20.3678C4.84191 19.831 5.05797 19.3161 5.44255 18.9365C5.82714 18.557 6.34875 18.3437 6.89263 18.3437C7.43651 18.3437 7.95812 18.557 8.34271 18.9365C8.72729 19.3161 8.94335 19.831 8.94335 20.3678C8.94335 20.9046 8.72729 21.4194 8.34271 21.799C7.95812 22.1786 7.43651 22.3918 6.89263 22.3918C6.34875 22.3918 5.82714 22.1786 5.44255 21.799C5.05797 21.4194 4.84191 20.9046 4.84191 20.3678ZM19.1969 20.3678C19.1969 19.831 19.413 19.3161 19.7976 18.9365C20.1822 18.557 20.7038 18.3437 21.2476 18.3437C21.7915 18.3437 22.3131 18.557 22.6977 18.9365C23.0823 19.3161 23.2984 19.831 23.2984 20.3678C23.2984 20.9046 23.0823 21.4194 22.6977 21.799C22.3131 22.1786 21.7915 22.3918 21.2476 22.3918C20.7038 22.3918 20.1822 22.1786 19.7976 21.799C19.413 21.4194 19.1969 20.9046 19.1969 20.3678Z" fill="#F6F6F6"/>
</symbol>
<symbol id="icon-chevron-down" viewBox="0 0 9 6">
<path fill-rule="evenodd" clip-rule="evenodd" d="M3.83651 4.94967L0.0739412 1.04761L1.01442 0.0722653L4.30675 3.48666L7.59908 0.0722656L8.53955 1.04761L4.77698 4.94967C4.65226 5.07899 4.48311 5.15163 4.30675 5.15163C4.13038 5.15163 3.96124 5.07899 3.83651 4.94967Z" fill="black"/>
</symbol>
<symbol id="icon-chevron-left" viewBox="0 0 7 12">
<path fill-rule="evenodd" clip-rule="evenodd" d="M0.542358 6.63623L5.27612 11.37L6.45935 10.1868L2.3172 6.04461L6.45935 1.90247L5.27612 0.719238L0.542358 5.453C0.385483 5.60992 0.297356 5.82273 0.297356 6.04461C0.297356 6.2665 0.385483 6.47931 0.542358 6.63623Z" fill="black"/>
</symbol>
<symbol id="icon-chevron-right" viewBox="0 0 10 16">
<path fill-rule="evenodd" clip-rule="evenodd" d="M9.17926 9.00731L2.023 15.9077L0.234252 14.1829L6.49614 8.14491L0.234253 2.10688L2.023 0.38208L9.17926 7.28251C9.41642 7.51125 9.54965 7.82146 9.54965 8.14491C9.54965 8.46836 9.41642 8.77856 9.17926 9.00731Z" fill="#FE7A29"/>
</symbol>
<symbol id="icon-close" viewBox="0 0 12 12">
<path opacity="0.24" d="M0.676819 10.8067L5.70861 5.77495M5.70861 5.77495L10.7404 0.743164M5.70861 5.77495L0.676819 0.743164M5.70861 5.77495L10.7404 10.8067" stroke="black" stroke-width="1.25795" stroke-linecap="round" stroke-linejoin="round"/>
</symbol>
<symbol id="icon-facebook" viewBox="0 0 15 21">
<path d="M12.0282 2.11719H9.94935C7.35077 2.11719 5.79163 3.67634 5.79163 6.27491V18.7481" stroke="white" stroke-width="4.15773" stroke-linecap="round" stroke-linejoin="round"/>
<path d="M2.67346 10.4321H9.94948" stroke="white" stroke-width="4.15773" stroke-linecap="round" stroke-linejoin="round"/>
</symbol>
<symbol id="icon-instagram" viewBox="0 0 22 21">
<path d="M6.57766 0.0380859H15.3089C18.6351 0.0380859 21.3376 2.74061 21.3376 6.06679V14.798C21.3376 16.3969 20.7024 17.9304 19.5718 19.061C18.4412 20.1916 16.9078 20.8267 15.3089 20.8267H6.57766C3.25147 20.8267 0.54895 18.1242 0.54895 14.798V6.06679C0.54895 4.46788 1.18412 2.93445 2.31472 1.80385C3.44532 0.673251 4.97874 0.0380859 6.57766 0.0380859ZM6.36977 2.11695C5.37734 2.11695 4.42556 2.51119 3.72381 3.21294C3.02205 3.9147 2.62781 4.86648 2.62781 5.8589V15.0059C2.62781 17.0744 4.3013 18.7479 6.36977 18.7479H15.5168C16.5092 18.7479 17.461 18.3536 18.1627 17.6519C18.8645 16.9501 19.2587 15.9983 19.2587 15.0059V5.8589C19.2587 3.79044 17.5852 2.11695 15.5168 2.11695H6.36977ZM16.4003 3.6761C16.7449 3.6761 17.0754 3.81299 17.319 4.05665C17.5627 4.30031 17.6996 4.63079 17.6996 4.97539C17.6996 5.31998 17.5627 5.65046 17.319 5.89412C17.0754 6.13779 16.7449 6.27468 16.4003 6.27468C16.0557 6.27468 15.7252 6.13779 15.4815 5.89412C15.2379 5.65046 15.101 5.31998 15.101 4.97539C15.101 4.63079 15.2379 4.30031 15.4815 4.05665C15.7252 3.81299 16.0557 3.6761 16.4003 3.6761ZM10.9433 5.23525C12.3216 5.23525 13.6436 5.7828 14.6182 6.75746C15.5929 7.73211 16.1404 9.05403 16.1404 10.4324C16.1404 11.8108 15.5929 13.1327 14.6182 14.1074C13.6436 15.082 12.3216 15.6296 10.9433 15.6296C9.5649 15.6296 8.24298 15.082 7.26832 14.1074C6.29367 13.1327 5.74611 11.8108 5.74611 10.4324C5.74611 9.05403 6.29367 7.73211 7.26832 6.75746C8.24298 5.7828 9.5649 5.23525 10.9433 5.23525ZM10.9433 7.31411C10.1162 7.31411 9.3231 7.64264 8.7383 8.22744C8.15351 8.81223 7.82497 9.60538 7.82497 10.4324C7.82497 11.2594 8.15351 12.0526 8.7383 12.6374C9.3231 13.2222 10.1162 13.5507 10.9433 13.5507C11.7703 13.5507 12.5634 13.2222 13.1482 12.6374C13.733 12.0526 14.0616 11.2594 14.0616 10.4324C14.0616 9.60538 13.733 8.81223 13.1482 8.22744C12.5634 7.64264 11.7703 7.31411 10.9433 7.31411Z" fill="white"/>
</symbol>
<symbol id="icon-logo" viewBox="0 0 28 27">
<path d="M25.3289 3.46133L24.7656 4.64272L25.3289 3.46133ZM26.5674 8.07915L26.0041 9.26054L26.5674 8.07915ZM16.3218 3.46133L15.7585 4.75045L16.3218 3.46133ZM20.8244 1.41992L20.263 2.60131L20.8244 1.41992ZM7.54036 11.9465L8.10181 13.1279L7.54036 11.9465ZM12.043 13.9861L12.6063 15.2752L12.043 13.9861ZM1.79738 18.6057L2.36067 19.7871L1.79738 18.6057ZM3.03588 13.9861L3.59917 15.1675L3.03588 13.9861ZM20.7125 7.32686C19.9235 7.0055 19.0245 7.0055 18.2355 7.43642L15.1952 8.93918C14.1824 9.476 13.8448 10.7651 14.6319 11.6233C14.9714 12.0542 15.5328 12.2679 16.0961 12.2679H17.4484C18.0098 12.2679 18.5731 12.4833 18.9107 12.9124L19.6997 13.8802C20.0373 14.3093 20.5988 14.5229 21.1639 14.5229C22.2886 14.5229 23.1895 13.4493 22.9638 12.3756L22.2886 9.15281C22.0629 8.40235 21.4996 7.65006 20.7125 7.32686ZM7.65228 17.8535C6.86331 18.1766 6.30002 18.9271 6.07434 19.7871L5.40096 23.0099C5.34547 23.2732 5.3506 23.5457 5.41598 23.8067C5.48136 24.0678 5.60529 24.3107 5.77847 24.5173C5.95165 24.7239 6.16959 24.8888 6.41594 24.9996C6.66229 25.1105 6.93066 25.1644 7.20092 25.1572C7.76421 25.1572 8.3275 24.9418 8.6651 24.5127L9.45407 23.5449C9.79168 23.1158 10.3531 22.9022 10.9164 22.9022H12.2687C12.832 22.9022 13.3934 22.6867 13.7329 22.2576C13.896 22.0525 14.0118 21.8143 14.0722 21.5597C14.1325 21.3051 14.136 21.0405 14.0823 20.7844C14.0285 20.5284 13.9189 20.2872 13.7612 20.078C13.6035 19.8687 13.4015 19.6965 13.1696 19.5735L10.1293 18.0689C9.78092 17.7998 9.36199 17.6364 8.92267 17.5982C8.48335 17.5599 8.04227 17.6486 7.65228 17.8535Z" fill="#F6F6F6"/>
<path d="M25.3289 3.46133L24.7656 4.64272M26.5674 8.07915L26.0041 9.26054M16.3218 3.46133L15.7585 4.75045M20.8244 1.41992L20.263 2.60131M7.54036 11.9465L8.10181 13.1279M12.043 13.9861L12.6063 15.2752M1.79738 18.6057L2.36067 19.7871M3.03588 13.9861L3.59917 15.1675M20.7125 7.32686C19.9235 7.0055 19.0245 7.0055 18.2355 7.43642L15.1952 8.93918C14.1824 9.476 13.8448 10.7651 14.6319 11.6233C14.9714 12.0542 15.5328 12.2679 16.0961 12.2679H17.4484C18.0098 12.2679 18.5731 12.4833 18.9107 12.9124L19.6997 13.8802C20.0373 14.3093 20.5988 14.5229 21.1639 14.5229C22.2886 14.5229 23.1895 13.4493 22.9638 12.3756L22.2886 9.15281C22.0629 8.40235 21.4996 7.65006 20.7125 7.32686ZM7.65228 17.8535C6.86331 18.1766 6.30002 18.9271 6.07434 19.7871L5.40096 23.0099C5.34547 23.2732 5.3506 23.5457 5.41598 23.8067C5.48136 24.0678 5.60529 24.3107 5.77847 24.5173C5.95165 24.7239 6.16959 24.8888 6.41594 24.9996C6.66229 25.1105 6.93066 25.1644 7.20092 25.1572C7.76421 25.1572 8.32749 24.9418 8.6651 24.5127L9.45407 23.5449C9.79168 23.1158 10.3531 22.9022 10.9164 22.9022H12.2687C12.832 22.9022 13.3934 22.6867 13.7329 22.2576C13.896 22.0525 14.0118 21.8143 14.0722 21.5597C14.1325 21.3051 14.136 21.0405 14.0823 20.7844C14.0285 20.5284 13.9189 20.2872 13.7612 20.078C13.6035 19.8687 13.4015 19.6965 13.1696 19.5735L10.1293 18.0689C9.78092 17.7998 9.36199 17.6364 8.92267 17.5982C8.48335 17.5599 8.04227 17.6486 7.65228 17.8535Z" stroke="#F6F6F6" stroke-width="2.06417" stroke-miterlimit="10" stroke-linecap="square" stroke-linejoin="round"/>
</symbol>
<symbol id="icon-profile" viewBox="0 0 20 20">
<path d="M10.2061 0.717529C11.4715 0.717529 12.685 1.22019 13.5797 2.11492C14.4744 3.00965 14.9771 4.22318 14.9771 5.48852C14.9771 6.75387 14.4744 7.96739 13.5797 8.86212C12.685 9.75686 11.4715 10.2595 10.2061 10.2595C8.94076 10.2595 7.72724 9.75686 6.83251 8.86212C5.93777 7.96739 5.43512 6.75387 5.43512 5.48852C5.43512 4.22318 5.93777 3.00965 6.83251 2.11492C7.72724 1.22019 8.94076 0.717529 10.2061 0.717529ZM10.2061 3.10303C9.57343 3.10303 8.96668 3.35435 8.51931 3.80172C8.07194 4.24909 7.82061 4.85585 7.82061 5.48852C7.82061 6.12119 8.07194 6.72795 8.51931 7.17532C8.96668 7.62269 9.57343 7.87402 10.2061 7.87402C10.8388 7.87402 11.4455 7.62269 11.8929 7.17532C12.3403 6.72795 12.5916 6.12119 12.5916 5.48852C12.5916 4.85585 12.3403 4.24909 11.8929 3.80172C11.4455 3.35435 10.8388 3.10303 10.2061 3.10303ZM10.2061 11.4523C13.3907 11.4523 19.7481 13.0386 19.7481 16.2233V19.8015H0.664124V16.2233C0.664124 13.0386 7.02147 11.4523 10.2061 11.4523ZM10.2061 13.7185C6.66365 13.7185 2.93035 15.4599 2.93035 16.2233V17.5353H17.4819V16.2233C17.4819 15.4599 13.7486 13.7185 10.2061 13.7185Z" fill="#F6F6F6"/>
</symbol>
<symbol id="icon-search" viewBox="0 0 17 17">
<path d="M15.926 16.8263L9.77184 10.6722C9.28045 11.0909 8.71536 11.4149 8.07656 11.6442C7.43775 11.8735 6.79568 11.9882 6.15032 11.9882C4.57658 11.9882 3.2446 11.4434 2.15437 10.3538C1.06415 9.26425 0.519043 7.93259 0.519043 6.35885C0.519043 4.7851 1.0635 3.45279 2.15241 2.36192C3.24132 1.27104 4.57265 0.724946 6.14639 0.723635C7.72014 0.722325 9.05278 1.26744 10.1443 2.35897C11.2358 3.4505 11.7816 4.78281 11.7816 6.3559C11.7816 7.0386 11.6607 7.69935 11.419 8.33815C11.1772 8.97695 10.8594 9.52337 10.4657 9.97741L16.6198 16.1305L15.926 16.8263ZM6.15131 11.0044C7.45512 11.0044 8.55582 10.5556 9.45342 9.65801C10.351 8.76041 10.7998 7.65938 10.7998 6.35492C10.7998 5.05045 10.351 3.94975 9.45342 3.0528C8.55582 2.15586 7.45512 1.70706 6.15131 1.70641C4.8475 1.70575 3.74646 2.15455 2.84821 3.0528C1.94996 3.95106 1.50116 5.05176 1.50181 6.35492C1.50247 7.65807 1.95127 8.75878 2.84821 9.65703C3.74515 10.5553 4.84586 11.0041 6.15032 11.0034" fill="#FE7A29"/>
</symbol>
</svg>
