<svg width="28" height="26" viewBox="0 0 28 26" fill="none" xmlns="http://www.w3.org/2000/svg">
<path d="M14.0465 16.6301L8.09303 23.8151V1.39307C8.09303 1.24388 8.03376 1.10081 7.92828 0.995319C7.82279 0.88983 7.67971 0.830566 7.53053 0.830566C7.38134 0.830566 7.23827 0.88983 7.13278 0.995319C7.02729 1.10081 6.96803 1.24388 6.96803 1.39307V23.7836L1.01453 16.6293C0.967302 16.5725 0.909344 16.5255 0.843965 16.4911C0.778585 16.4567 0.707065 16.4354 0.633486 16.4286C0.559907 16.4219 0.485711 16.4296 0.415135 16.4515C0.344558 16.4734 0.278983 16.509 0.222154 16.5562C0.165324 16.6034 0.118353 16.6614 0.0839222 16.7268C0.0494914 16.7921 0.0282752 16.8637 0.0214849 16.9372C0.0146946 17.0108 0.0224633 17.085 0.0443472 17.1556C0.0662312 17.2262 0.101802 17.2917 0.149029 17.3486L7.11278 25.7163C7.16555 25.7799 7.23169 25.8311 7.30648 25.8662C7.38128 25.9013 7.46289 25.9196 7.54553 25.9196H7.54628C7.71353 25.9196 7.87178 25.8446 7.97903 25.7163L14.9135 17.3486C15.0088 17.2336 15.0545 17.0855 15.0406 16.9368C15.0267 16.7881 14.9543 16.6511 14.8393 16.5558C14.7243 16.4605 14.5762 16.4148 14.4275 16.4288C14.2789 16.4427 14.1418 16.5151 14.0465 16.6301ZM27.8503 8.65157L20.8873 0.283817C20.8346 0.220329 20.7686 0.16921 20.6939 0.134085C20.6193 0.0989603 20.5378 0.0806889 20.4553 0.0805664C20.288 0.0805664 20.1283 0.155567 20.0225 0.283817L13.0873 8.65157C12.9934 8.76659 12.9488 8.91405 12.9632 9.0618C12.9777 9.20955 13.0499 9.34562 13.1642 9.44034C13.2785 9.53505 13.4256 9.58074 13.5735 9.56744C13.7214 9.55413 13.858 9.48292 13.9535 9.36932L19.907 2.18507V24.6071C19.907 24.7563 19.9663 24.8993 20.0718 25.0048C20.1773 25.1103 20.3203 25.1696 20.4695 25.1696C20.6187 25.1696 20.7618 25.1103 20.8673 25.0048C20.9728 24.8993 21.032 24.7563 21.032 24.6071V2.21582L26.9855 9.37007C27.0324 9.4272 27.0902 9.47447 27.1554 9.50914C27.2207 9.5438 27.2922 9.56517 27.3658 9.572C27.4394 9.57884 27.5136 9.57101 27.5842 9.54896C27.6547 9.52691 27.7202 9.49109 27.7768 9.44357C27.8915 9.34828 27.9637 9.21131 27.9775 9.06279C27.9913 8.91426 27.9455 8.76635 27.8503 8.65157Z" fill="#FE7A29"/>
</svg>
