<svg width="28" height="27" viewBox="0 0 28 27" fill="none" xmlns="http://www.w3.org/2000/svg">
<path d="M25.3289 3.46133L24.7656 4.64272L25.3289 3.46133ZM26.5674 8.07915L26.0041 9.26054L26.5674 8.07915ZM16.3218 3.46133L15.7585 4.75045L16.3218 3.46133ZM20.8244 1.41992L20.263 2.60131L20.8244 1.41992ZM7.54036 11.9465L8.10181 13.1279L7.54036 11.9465ZM12.043 13.9861L12.6063 15.2752L12.043 13.9861ZM1.79738 18.6057L2.36067 19.7871L1.79738 18.6057ZM3.03588 13.9861L3.59917 15.1675L3.03588 13.9861ZM20.7125 7.32686C19.9235 7.0055 19.0245 7.0055 18.2355 7.43642L15.1952 8.93918C14.1824 9.476 13.8448 10.7651 14.6319 11.6233C14.9714 12.0542 15.5328 12.2679 16.0961 12.2679H17.4484C18.0098 12.2679 18.5731 12.4833 18.9107 12.9124L19.6997 13.8802C20.0373 14.3093 20.5988 14.5229 21.1639 14.5229C22.2886 14.5229 23.1895 13.4493 22.9638 12.3756L22.2886 9.15281C22.0629 8.40235 21.4996 7.65006 20.7125 7.32686ZM7.65228 17.8535C6.86331 18.1766 6.30002 18.9271 6.07434 19.7871L5.40096 23.0099C5.34547 23.2732 5.3506 23.5457 5.41598 23.8067C5.48136 24.0678 5.60529 24.3107 5.77847 24.5173C5.95165 24.7239 6.16959 24.8888 6.41594 24.9996C6.66229 25.1105 6.93066 25.1644 7.20092 25.1572C7.76421 25.1572 8.3275 24.9418 8.6651 24.5127L9.45407 23.5449C9.79168 23.1158 10.3531 22.9022 10.9164 22.9022H12.2687C12.832 22.9022 13.3934 22.6867 13.7329 22.2576C13.896 22.0525 14.0118 21.8143 14.0722 21.5597C14.1325 21.3051 14.136 21.0405 14.0823 20.7844C14.0285 20.5284 13.9189 20.2872 13.7612 20.078C13.6035 19.8687 13.4015 19.6965 13.1696 19.5735L10.1293 18.0689C9.78092 17.7998 9.36199 17.6364 8.92267 17.5982C8.48335 17.5599 8.04227 17.6486 7.65228 17.8535Z" fill="#F6F6F6"/>
<path d="M25.3289 3.46133L24.7656 4.64272M26.5674 8.07915L26.0041 9.26054M16.3218 3.46133L15.7585 4.75045M20.8244 1.41992L20.263 2.60131M7.54036 11.9465L8.10181 13.1279M12.043 13.9861L12.6063 15.2752M1.79738 18.6057L2.36067 19.7871M3.03588 13.9861L3.59917 15.1675M20.7125 7.32686C19.9235 7.0055 19.0245 7.0055 18.2355 7.43642L15.1952 8.93918C14.1824 9.476 13.8448 10.7651 14.6319 11.6233C14.9714 12.0542 15.5328 12.2679 16.0961 12.2679H17.4484C18.0098 12.2679 18.5731 12.4833 18.9107 12.9124L19.6997 13.8802C20.0373 14.3093 20.5988 14.5229 21.1639 14.5229C22.2886 14.5229 23.1895 13.4493 22.9638 12.3756L22.2886 9.15281C22.0629 8.40235 21.4996 7.65006 20.7125 7.32686ZM7.65228 17.8535C6.86331 18.1766 6.30002 18.9271 6.07434 19.7871L5.40096 23.0099C5.34547 23.2732 5.3506 23.5457 5.41598 23.8067C5.48136 24.0678 5.60529 24.3107 5.77847 24.5173C5.95165 24.7239 6.16959 24.8888 6.41594 24.9996C6.66229 25.1105 6.93066 25.1644 7.20092 25.1572C7.76421 25.1572 8.32749 24.9418 8.6651 24.5127L9.45407 23.5449C9.79168 23.1158 10.3531 22.9022 10.9164 22.9022H12.2687C12.832 22.9022 13.3934 22.6867 13.7329 22.2576C13.896 22.0525 14.0118 21.8143 14.0722 21.5597C14.1325 21.3051 14.136 21.0405 14.0823 20.7844C14.0285 20.5284 13.9189 20.2872 13.7612 20.078C13.6035 19.8687 13.4015 19.6965 13.1696 19.5735L10.1293 18.0689C9.78092 17.7998 9.36199 17.6364 8.92267 17.5982C8.48335 17.5599 8.04227 17.6486 7.65228 17.8535Z" stroke="#F6F6F6" stroke-width="2.06417" stroke-miterlimit="10" stroke-linecap="square" stroke-linejoin="round"/>
</svg>
