<svg width="61" height="43" viewBox="0 0 61 43" fill="none" xmlns="http://www.w3.org/2000/svg">
<path d="M41.6114 7.83536L41.0481 9.01674L41.6114 7.83536ZM42.8499 12.4532L42.2866 13.6346L42.8499 12.4532ZM32.6043 7.83536L32.041 9.12447L32.6043 7.83536ZM37.1069 5.79395L36.5455 6.97533L37.1069 5.79395ZM23.8228 16.3205L24.3843 17.5019L23.8228 16.3205ZM28.3255 18.3601L28.8888 19.6492L28.3255 18.3601ZM18.0799 22.9798L18.6431 24.1612L18.0799 22.9798ZM19.3184 18.3601L19.8816 19.5415L19.3184 18.3601ZM36.995 11.7009C36.206 11.3795 35.307 11.3795 34.518 11.8104L31.4777 13.3132C30.4649 13.85 30.1273 15.1391 30.9144 15.9973C31.2538 16.4283 31.8153 16.6419 32.3786 16.6419H33.7308C34.2923 16.6419 34.8556 16.8574 35.1932 17.2865L35.9822 18.2542C36.3198 18.6833 36.8812 18.8969 37.4463 18.8969C38.5711 18.8969 39.472 17.8233 39.2463 16.7496L38.5711 13.5268C38.3454 12.7764 37.7821 12.0241 36.995 11.7009ZM23.9348 22.2275C23.1458 22.5507 22.5825 23.3011 22.3568 24.1612L21.6834 27.384C21.6279 27.6473 21.6331 27.9197 21.6985 28.1807C21.7638 28.4418 21.8878 28.6847 22.0609 28.8913C22.2341 29.0979 22.4521 29.2628 22.6984 29.3737C22.9448 29.4845 23.2131 29.5384 23.4834 29.5313C24.0467 29.5313 24.61 29.3158 24.9476 28.8867L25.7365 27.919C26.0742 27.4899 26.6356 27.2762 27.1989 27.2762H28.5512C29.1144 27.2762 29.6759 27.0608 30.0153 26.6317C30.1784 26.4266 30.2943 26.1883 30.3546 25.9337C30.415 25.6791 30.4185 25.4145 30.3647 25.1584C30.311 24.9024 30.2014 24.6612 30.0437 24.452C29.886 24.2427 29.684 24.0705 29.452 23.9475L26.4118 22.4429C26.0634 22.1738 25.6445 22.0104 25.2051 21.9722C24.7658 21.934 24.3247 22.0226 23.9348 22.2275Z" fill="#F6F6F6"/>
<path d="M41.6114 7.83536L41.0481 9.01674M42.8499 12.4532L42.2866 13.6346M32.6043 7.83536L32.041 9.12447M37.1069 5.79395L36.5455 6.97533M23.8228 16.3205L24.3843 17.5019M28.3255 18.3601L28.8888 19.6492M18.0799 22.9798L18.6431 24.1612M19.3184 18.3601L19.8816 19.5415M36.995 11.7009C36.206 11.3795 35.307 11.3795 34.518 11.8104L31.4777 13.3132C30.4649 13.85 30.1273 15.1391 30.9144 15.9973C31.2538 16.4283 31.8153 16.6419 32.3786 16.6419H33.7308C34.2923 16.6419 34.8556 16.8574 35.1932 17.2865L35.9822 18.2542C36.3198 18.6833 36.8812 18.8969 37.4463 18.8969C38.5711 18.8969 39.472 17.8233 39.2463 16.7496L38.5711 13.5268C38.3454 12.7764 37.7821 12.0241 36.995 11.7009ZM23.9348 22.2275C23.1458 22.5507 22.5825 23.3011 22.3568 24.1612L21.6834 27.384C21.6279 27.6473 21.6331 27.9197 21.6985 28.1807C21.7638 28.4418 21.8878 28.6847 22.0609 28.8913C22.2341 29.0979 22.4521 29.2628 22.6984 29.3737C22.9448 29.4845 23.2131 29.5384 23.4834 29.5313C24.0467 29.5313 24.61 29.3158 24.9476 28.8867L25.7365 27.919C26.0742 27.4899 26.6356 27.2762 27.1989 27.2762H28.5512C29.1144 27.2762 29.6759 27.0608 30.0153 26.6317C30.1784 26.4266 30.2943 26.1883 30.3546 25.9337C30.415 25.6791 30.4185 25.4145 30.3647 25.1584C30.311 24.9024 30.2014 24.6612 30.0437 24.452C29.886 24.2427 29.684 24.0705 29.452 23.9475L26.4118 22.4429C26.0634 22.1738 25.6445 22.0104 25.2051 21.9722C24.7658 21.934 24.3247 22.0226 23.9348 22.2275Z" stroke="#F6F6F6" stroke-width="2.06417" stroke-miterlimit="10" stroke-linecap="square" stroke-linejoin="round"/>
<path d="M16.5544 17.8605C16.5544 18.9517 16.3039 19.9535 15.803 20.8659C15.3021 21.7604 14.5329 22.4849 13.4953 23.0395C12.4577 23.594 11.1697 23.8713 9.63116 23.8713H6.78673V30.6335H2.19808V11.7959H9.63116C11.1339 11.7959 12.404 12.0553 13.4416 12.5741C14.4792 13.0929 15.2574 13.8085 15.7762 14.7209C16.295 15.6332 16.5544 16.6798 16.5544 17.8605ZM9.28231 20.2219C10.1589 20.2219 10.8119 20.0161 11.2412 19.6047C11.6706 19.1932 11.8852 18.6118 11.8852 17.8605C11.8852 17.1091 11.6706 16.5277 11.2412 16.1162C10.8119 15.7048 10.1589 15.4991 9.28231 15.4991H6.78673V20.2219H9.28231Z" fill="black"/>
<path d="M60.1291 11.7959V15.4722H55.138V30.6335H50.5493V15.4722H45.5582V11.7959H60.1291Z" fill="black"/>
</svg>
