<svg width="20" height="18" viewBox="0 0 20 18" fill="none" xmlns="http://www.w3.org/2000/svg">
<path d="M17.5659 10.893H7.6976L7.91793 11.9702H16.9538C17.4723 11.9702 17.8566 12.4516 17.7417 12.9572L17.556 13.7744C18.1852 14.0798 18.619 14.7248 18.619 15.4712C18.619 16.5216 17.76 17.3713 16.7061 17.3562C15.7022 17.3417 14.8765 16.527 14.8494 15.5233C14.8346 14.975 15.0542 14.4781 15.4151 14.1246H8.35754C8.70687 14.4669 8.9239 14.9436 8.9239 15.4712C8.9239 16.5422 8.03087 17.4046 6.94885 17.3543C5.98809 17.3097 5.20672 16.5334 5.15623 15.5729C5.11725 14.8312 5.50754 14.1774 6.10053 13.8363L3.73576 2.27508H1.38324C0.937033 2.27508 0.575317 1.91336 0.575317 1.46715V0.928533C0.575317 0.482321 0.937033 0.120605 1.38324 0.120605H4.83474C5.21854 0.120605 5.54935 0.390621 5.62627 0.766611L5.93484 2.27508H19.1573C19.6758 2.27508 20.06 2.7565 19.9451 3.26206L18.3537 10.2641C18.2702 10.6319 17.9432 10.893 17.5659 10.893ZM14.3101 5.7761H12.6942V4.42955C12.6942 4.13206 12.4531 3.89093 12.1556 3.89093H11.617C11.3195 3.89093 11.0784 4.13206 11.0784 4.42955V5.7761H9.46251C9.16503 5.7761 8.9239 6.01723 8.9239 6.31471V6.85333C8.9239 7.15082 9.16503 7.39195 9.46251 7.39195H11.0784V8.73849C11.0784 9.03598 11.3195 9.27711 11.617 9.27711H12.1556C12.4531 9.27711 12.6942 9.03598 12.6942 8.73849V7.39195H14.3101C14.6076 7.39195 14.8487 7.15082 14.8487 6.85333V6.31471C14.8487 6.01723 14.6076 5.7761 14.3101 5.7761Z" fill="#FE7A29"/>
</svg>
