<svg width="22" height="21" viewBox="0 0 22 21" fill="none" xmlns="http://www.w3.org/2000/svg">
<path d="M6.57766 0.0380859H15.3089C18.6351 0.0380859 21.3376 2.74061 21.3376 6.06679V14.798C21.3376 16.3969 20.7024 17.9304 19.5718 19.061C18.4412 20.1916 16.9078 20.8267 15.3089 20.8267H6.57766C3.25147 20.8267 0.54895 18.1242 0.54895 14.798V6.06679C0.54895 4.46788 1.18412 2.93445 2.31472 1.80385C3.44532 0.673251 4.97874 0.0380859 6.57766 0.0380859ZM6.36977 2.11695C5.37734 2.11695 4.42556 2.51119 3.72381 3.21294C3.02205 3.9147 2.62781 4.86648 2.62781 5.8589V15.0059C2.62781 17.0744 4.3013 18.7479 6.36977 18.7479H15.5168C16.5092 18.7479 17.461 18.3536 18.1627 17.6519C18.8645 16.9501 19.2587 15.9983 19.2587 15.0059V5.8589C19.2587 3.79044 17.5852 2.11695 15.5168 2.11695H6.36977ZM16.4003 3.6761C16.7449 3.6761 17.0754 3.81299 17.319 4.05665C17.5627 4.30031 17.6996 4.63079 17.6996 4.97539C17.6996 5.31998 17.5627 5.65046 17.319 5.89412C17.0754 6.13779 16.7449 6.27468 16.4003 6.27468C16.0557 6.27468 15.7252 6.13779 15.4815 5.89412C15.2379 5.65046 15.101 5.31998 15.101 4.97539C15.101 4.63079 15.2379 4.30031 15.4815 4.05665C15.7252 3.81299 16.0557 3.6761 16.4003 3.6761ZM10.9433 5.23525C12.3216 5.23525 13.6436 5.7828 14.6182 6.75746C15.5929 7.73211 16.1404 9.05403 16.1404 10.4324C16.1404 11.8108 15.5929 13.1327 14.6182 14.1074C13.6436 15.082 12.3216 15.6296 10.9433 15.6296C9.5649 15.6296 8.24298 15.082 7.26832 14.1074C6.29367 13.1327 5.74611 11.8108 5.74611 10.4324C5.74611 9.05403 6.29367 7.73211 7.26832 6.75746C8.24298 5.7828 9.5649 5.23525 10.9433 5.23525ZM10.9433 7.31411C10.1162 7.31411 9.3231 7.64264 8.7383 8.22744C8.15351 8.81223 7.82497 9.60538 7.82497 10.4324C7.82497 11.2594 8.15351 12.0526 8.7383 12.6374C9.3231 13.2222 10.1162 13.5507 10.9433 13.5507C11.7703 13.5507 12.5634 13.2222 13.1482 12.6374C13.733 12.0526 14.0616 11.2594 14.0616 10.4324C14.0616 9.60538 13.733 8.81223 13.1482 8.22744C12.5634 7.64264 11.7703 7.31411 10.9433 7.31411Z" fill="white"/>
</svg>
